<svg width="170" height="48" viewBox="0 0 170 48" fill="none" xmlns="http://www.w3.org/2000/svg">
<g clip-path="url(#clip0_601_4273)">
<path fill-rule="evenodd" clip-rule="evenodd" d="M23.3919 0.825195H47.0257L41.3905 10.7772H23.3919C16.1897 10.7772 10.3522 16.7508 10.3522 24.1209C10.3522 31.491 16.1897 37.4646 23.3919 37.4646C28.1088 37.4646 32.2405 34.901 34.5295 31.0627C33.0497 40.5377 28.6225 47.4165 23.3919 47.4165C17.1061 47.4165 11.4154 44.8083 7.29556 40.5945C3.17576 36.3787 0.628906 30.5552 0.628906 24.1229C0.628906 17.6906 3.17774 11.8671 7.29556 7.65131C11.4154 3.43345 17.1061 0.825195 23.3919 0.825195Z" fill="#003671"/>
<path fill-rule="evenodd" clip-rule="evenodd" d="M23.3919 0.825195H47.0257L41.3905 10.7772H23.3503C23.2531 10.7772 23.1519 10.7792 23.0547 10.7812C13.3235 10.9659 5.49054 19.0931 5.49054 29.0958C5.49054 39.0986 13.2164 47.1161 22.8564 47.4064C16.7828 47.2643 11.2983 44.6885 7.29556 40.5925C3.17576 36.3766 0.628906 30.5532 0.628906 24.1209C0.628906 17.6885 3.17774 11.8651 7.29556 7.64928C11.4154 3.43345 17.1061 0.825195 23.3919 0.825195Z" fill="#003671"/>
<path fill-rule="evenodd" clip-rule="evenodd" d="M46.1566 24.1187C46.1566 30.5511 43.6078 36.3745 39.49 40.5903C36.5325 43.6167 32.7658 45.8129 28.5508 46.8116C33.1863 43.026 36.4333 34.2919 36.4333 24.1208V17.9563L46.1586 12.1816V24.1187H46.1566Z" fill="#E30613"/>
<path fill-rule="evenodd" clip-rule="evenodd" d="M101.6 30.9487H99.9072L95.1017 24.4358L100.065 17.9795H100.921L96.4072 23.9169L101.603 30.9487H101.6ZM94.6908 30.9487H93.2891V17.9795H94.6908V30.9487Z" fill="#003671"/>
<path fill-rule="evenodd" clip-rule="evenodd" d="M111.898 30.949H110.496L108.899 26.9321H103.878L102.322 30.949H101.465L106.661 17.6875L111.895 30.949H111.898ZM108.707 26.3177L106.448 20.3535L104.114 26.3177H108.707Z" fill="#003671"/>
<path fill-rule="evenodd" clip-rule="evenodd" d="M117.817 18.6743H114.664V30.9487H113.263V18.6743H110.109V17.9795H117.817V18.6743Z" fill="#003671"/>
<path fill-rule="evenodd" clip-rule="evenodd" d="M129.932 24.4957C129.932 26.4609 129.338 28.0832 128.152 29.3655C126.966 30.6478 125.535 31.286 123.862 31.286C122.189 31.286 120.759 30.6449 119.57 29.3655C118.384 28.0832 117.789 26.4609 117.789 24.4957C117.789 22.5305 118.392 20.9112 119.599 19.5961C120.767 18.3227 122.187 17.6846 123.859 17.6846C125.532 17.6846 126.954 18.3227 128.12 19.5961C129.326 20.9112 129.93 22.5424 129.93 24.4957H129.932ZM128.452 24.4957C128.452 22.611 128.021 21.0961 127.158 19.954C126.296 18.8118 125.203 18.2422 123.88 18.2422C122.557 18.2422 121.464 18.8148 120.601 19.954C119.739 21.0961 119.307 22.611 119.307 24.4957C119.307 26.3804 119.739 27.8924 120.601 29.0256C121.464 30.1618 122.557 30.7284 123.88 30.7284C125.203 30.7284 126.296 30.1588 127.158 29.0256C128.021 27.8894 128.452 26.3804 128.452 24.4957Z" fill="#003671"/>
<path fill-rule="evenodd" clip-rule="evenodd" d="M145.196 17.9795L140.192 31.2857L137.742 24.5044L135.25 31.2857L130.27 17.9795H131.727L135.64 28.402L137.392 23.5292L135.366 17.9795H136.806L140.542 28.4229L144.415 17.9795H145.196Z" fill="#003671"/>
<path d="M147.964 17.9795H146.562V30.9487H147.964V17.9795Z" fill="#003671"/>
<path fill-rule="evenodd" clip-rule="evenodd" d="M160.686 28.459C159.765 30.3437 158.253 31.286 156.152 31.286C154.348 31.286 152.844 30.6478 151.638 29.3745C150.431 28.1011 149.828 26.4281 149.828 24.3556C149.828 22.4977 150.402 20.9202 151.55 19.6259C152.699 18.3317 154.182 17.6846 155.997 17.6846C158.087 17.6846 159.643 18.606 160.669 20.452L159.969 20.8307C159.203 19.107 157.953 18.2422 156.213 18.2422C154.759 18.2422 153.587 18.785 152.69 19.8615C151.795 20.944 151.346 22.3963 151.346 24.2273C151.346 26.1627 151.804 27.7283 152.719 28.9301C153.634 30.1289 154.797 30.7284 156.213 30.7284C157.991 30.7284 159.267 29.792 160.048 27.9192L160.689 28.456L160.686 28.459Z" fill="#003671"/>
<path fill-rule="evenodd" clip-rule="evenodd" d="M169.626 30.9487H162.25V17.9795H169.431V18.6743H163.652V23.9974H169.081V24.6535H163.652V30.2539H169.626V30.9487Z" fill="#003671"/>
<path fill-rule="evenodd" clip-rule="evenodd" d="M55.5794 19.6949L56.5295 17.9414H65.5751L64.628 19.6949H55.5794ZM64.3482 20.2108L59.4611 29.2019H66.155L65.2079 30.9494H54.5391L60.3645 20.2108H64.3453H64.3482Z" fill="#003671"/>
<path fill-rule="evenodd" clip-rule="evenodd" d="M66.5321 20.2079H69.997V30.9465H66.5321V20.2079ZM65.582 19.692L66.5321 17.9385H73.5873C75.6447 17.9385 77.2067 19.6741 77.2067 21.6423C77.2067 23.36 75.9536 25.0628 74.0506 25.3013L77.3145 30.9435H73.325L70.2302 24.3292H71.3667C72.7684 24.3292 73.6368 23.1303 73.6368 21.9971C73.6368 21.0518 72.9403 19.686 71.3987 19.686H65.5849L65.582 19.692Z" fill="#003671"/>
<path fill-rule="evenodd" clip-rule="evenodd" d="M77.8281 19.6949L78.7781 17.9414H87.6897L86.7397 19.6949H77.8281ZM82.3393 20.2108V23.4792H87.4333L86.5066 25.2327H82.3393V29.1959H87.9199L86.9728 30.9494H78.7781V20.2108H82.3393Z" fill="#003671"/>
</g>
<defs>
<clipPath id="clip0_601_4273">
<rect width="170" height="48" fill="white"/>
</clipPath>
</defs>
</svg>
