<svg width="224" height="48" viewBox="0 0 224 48" fill="none" xmlns="http://www.w3.org/2000/svg">
<path fill-rule="evenodd" clip-rule="evenodd" d="M7.08 20.74H0L9.34 38.54H13.36L22.66 20.74H15.58L11.35 29.87L7.08 20.74Z" fill="#9BA0A2"/>
<path fill-rule="evenodd" clip-rule="evenodd" d="M27.5763 27.0484C27.9563 25.2084 29.4862 24.2384 31.3263 24.2384C33.0262 24.2384 34.5863 25.3484 34.8963 27.0484H27.5763ZM40.7663 30.0284C40.7663 23.9584 37.1963 20.1384 31.0163 20.1384C25.2163 20.1384 21.1562 23.7084 21.1562 29.6484C21.1562 35.5884 25.5662 39.1184 31.4662 39.1184C35.5262 39.1184 39.5162 37.2084 40.5262 33.0084H34.4562C33.7662 34.1884 32.7863 34.6384 31.4363 34.6384C28.8363 34.6384 27.4762 33.2484 27.4762 30.6784H40.7663V30.0184V30.0284Z" fill="#9BA0A2"/>
<path fill-rule="evenodd" clip-rule="evenodd" d="M49.5006 25.9384H53.0706V20.7384H49.5006V15.3884H43.1806V20.7384H41.1406V25.9384H43.1806V38.5384H49.5006V25.9384Z" fill="#9BA0A2"/>
<path fill-rule="evenodd" clip-rule="evenodd" d="M60.695 20.7378H54.375V38.5378H60.695V31.3578C60.695 28.3078 61.565 25.9778 65.065 25.9778C66.035 25.9778 66.865 26.0778 67.735 26.5678V20.4978H66.525C64.065 20.4978 61.975 21.4678 60.765 23.6578H60.695V20.7378Z" fill="#9BA0A2"/>
<path fill-rule="evenodd" clip-rule="evenodd" d="M78.1809 20.1541C72.4509 20.1541 67.4609 23.5941 67.4609 29.6641C67.4609 35.7341 72.4909 39.1341 78.1809 39.1341C83.8709 39.1341 88.9009 35.6941 88.9009 29.6641C88.9009 23.6341 83.9009 20.1541 78.1809 20.1541ZM78.1809 25.6341C80.7509 25.6341 82.2409 27.4741 82.2409 29.6641C82.2409 31.8541 80.7509 33.6541 78.1809 33.6541C75.6109 33.6541 74.1209 31.9141 74.1209 29.6641C74.1209 27.4141 75.6109 25.6341 78.1809 25.6341Z" fill="#0061AD"/>
<path fill-rule="evenodd" clip-rule="evenodd" d="M96.8044 20.7419H90.4844V47.4319H96.8044V36.8519C98.1544 38.4119 100.274 39.1419 102.324 39.1419C107.594 39.1419 111.244 34.8419 111.244 29.7019C111.244 24.5619 107.564 20.1619 102.254 20.1619C100.174 20.1619 98.0244 20.9919 96.8744 22.7619H96.8044V20.7519V20.7419ZM100.654 25.6319C103.224 25.6319 104.714 27.4719 104.714 29.6619C104.714 31.8519 103.224 33.6519 100.654 33.6519C98.0844 33.6519 96.5944 31.9119 96.5944 29.6619C96.5944 27.4119 98.0844 25.6319 100.654 25.6319Z" fill="#9BA0A2"/>
<path fill-rule="evenodd" clip-rule="evenodd" d="M122.965 25.6341C125.535 25.6341 127.025 27.4741 127.025 29.6641C127.025 31.8541 125.535 33.6541 122.965 33.6541C120.395 33.6541 118.905 31.9141 118.905 29.6641C118.905 27.4141 120.395 25.6341 122.965 25.6341ZM133.135 20.7441H126.815V22.4841C125.495 20.9241 123.345 20.1541 121.295 20.1541C116.025 20.1541 112.375 24.5241 112.375 29.6241C112.375 34.7241 116.085 39.1341 121.365 39.1341C123.445 39.1341 125.635 38.3341 126.745 36.5641H126.815V38.5441H133.135V20.7441Z" fill="#9BA0A2"/>
<path fill-rule="evenodd" clip-rule="evenodd" d="M148.761 21.1941C147.511 20.5041 146.051 20.1541 144.601 20.1541C139.011 20.1541 134.641 24.1141 134.641 29.8341C134.641 35.2141 139.051 39.1341 144.321 39.1341C145.851 39.1341 147.371 38.8241 148.761 38.1241V32.7841C147.931 33.5441 146.711 33.9941 145.601 33.9941C143.001 33.9941 141.161 32.1941 141.161 29.6241C141.161 27.0541 143.071 25.2841 145.501 25.2841C146.711 25.2841 147.831 25.8441 148.761 26.5341V21.1941Z" fill="#9BA0A2"/>
<path fill-rule="evenodd" clip-rule="evenodd" d="M157.257 9.73999H150.938V38.54H157.257V31.29L164.158 38.54H173.007L163.537 28.96L172.458 20.74H163.807L157.257 27.16V9.73999Z" fill="#9BA0A2"/>
<path fill-rule="evenodd" clip-rule="evenodd" d="M205.586 9.92111C206.106 10.9711 206.006 12.1311 205.376 13.0711L202.546 18.0011C201.386 16.2111 200.236 14.4311 199.286 12.5411C198.766 11.4911 198.976 10.0211 199.816 9.07111C200.756 8.02111 202.226 7.50111 203.596 8.02111C204.436 8.44111 205.176 9.07111 205.596 9.91111L205.586 9.92111ZM198.126 25.6711L195.186 30.8111C194.446 31.9611 193.086 32.6011 191.616 32.3811C190.466 32.1711 189.516 31.3311 188.996 30.1811C188.576 29.1311 188.786 27.7711 189.626 26.8211C190.256 25.9811 191.306 25.5611 192.356 25.5611H198.126V25.6611V25.6711ZM214.506 25.8811C215.656 26.6211 216.396 27.9811 216.186 29.4511C216.076 30.8111 215.026 31.9711 213.876 32.3911C212.506 32.7011 211.246 32.2911 210.406 31.4511L209.886 30.8211L206.846 25.5711L211.786 25.4711C212.836 25.4711 213.886 25.4711 214.516 25.8911L214.506 25.8811ZM206.736 25.4611H198.336L202.436 18.2211L206.746 25.4611H206.736ZM212.086 6.67111C213.976 10.4511 213.236 15.2811 210.406 18.4311C212.196 18.1211 214.396 18.1211 215.966 18.7411C219.956 20.0011 223.106 23.6811 223.426 28.0811C223.846 32.2811 221.646 36.1611 218.066 38.2611C215.446 39.8311 211.346 40.1511 208.506 38.6811C205.676 37.4211 203.576 35.1111 202.626 32.1711C202.416 32.5911 202.206 33.0111 202.106 33.4311C200.216 37.2111 196.436 39.7311 192.126 39.6211C187.616 39.5211 183.726 36.6811 182.256 32.4811C180.786 28.7011 181.946 24.1911 184.776 21.3511C187.296 18.8311 190.756 17.7811 194.436 18.4111C191.916 15.6811 190.976 11.2711 192.236 7.81111C193.716 3.72111 197.706 0.681112 202.016 0.571112C206.426 0.471112 210.306 2.88111 212.096 6.66111L212.086 6.67111Z" fill="#0061AD"/>
</svg>
